<svg xmlns="http://www.w3.org/2000/svg" xmlns:xlink="http://www.w3.org/1999/xlink" width="500" zoomAndPan="magnify" viewBox="0 0 375 374.999991" height="500" preserveAspectRatio="xMidYMid meet" version="1.0"><defs><g/></defs><path stroke-linecap="butt" transform="matrix(0.75, 0, 0, 0.75, 56.518822, 88.821294)" fill="none" stroke-linejoin="miter" d="M 20.375946 72.628904 L 43.047823 72.628904 L 43.047823 83.998697 L 6.787404 83.998697 L 6.787404 30.550776 L 20.375946 30.550776 Z M 81.542617 83.998697 L 67.954075 83.998697 L 67.954075 30.550776 L 81.542617 30.550776 Z M 140.037413 83.998697 L 125.985328 83.998697 L 105.214494 30.550776 L 119.719703 30.550776 L 133.386371 69.868487 L 147.068663 30.550776 L 161.032206 30.550776 Z M 198.303042 83.998697 L 184.709291 83.998697 L 184.709291 30.550776 L 198.303042 30.550776 Z M 276.724922 83.998697 L 264.740546 83.998697 L 240.146794 51.097653 L 240.146794 83.998697 L 227.396793 83.998697 L 227.396793 30.550776 L 239.386378 30.550776 L 264.047837 63.529945 L 264.047837 30.550776 L 276.724922 30.550776 Z M 341.313468 56.821612 L 353.079093 56.821612 L 353.079093 77.660155 C 350.18326 79.701821 346.68326 81.373696 342.584301 82.67578 C 338.480134 83.967447 334.573884 84.61328 330.855134 84.61328 C 322.714508 84.61328 315.917633 82.003905 310.459299 76.785154 C 305.01659 71.566404 302.29784 65.061195 302.29784 57.26432 C 302.29784 49.535153 305.094715 43.071611 310.683257 37.878902 C 316.292633 32.680985 323.318675 30.087235 331.7718 30.087235 C 335.745759 30.087235 339.693676 30.800776 343.610343 32.22786 C 347.537426 33.660152 350.87076 35.592443 353.62076 38.029944 L 345.974926 47.274736 C 344.047843 45.483069 341.813468 44.071611 339.266592 43.040361 C 336.714509 41.998694 334.193675 41.477861 331.693675 41.477861 C 327.318675 41.477861 323.641591 42.993486 320.657216 46.024736 C 317.688466 49.045569 316.204091 52.790361 316.204091 57.26432 C 316.204091 61.800779 317.698883 65.597654 320.698883 68.654946 C 323.704091 71.701821 327.417633 73.222654 331.844717 73.222654 C 334.704092 73.222654 337.860342 72.363279 341.313468 70.634112 Z M 341.313468 56.821612 " stroke="#ffffff" stroke-width="1.050041" stroke-opacity="1" stroke-miterlimit="4"/><g fill="#696969" fill-opacity="1"><g transform="translate(57.596947, 151.82129)"><g><path d="M 14.203125 -8.53125 L 31.203125 -8.53125 L 31.203125 0 L 4.015625 0 L 4.015625 -40.078125 L 14.203125 -40.078125 Z M 14.203125 -8.53125 "/></g></g></g><g fill="#696969" fill-opacity="1"><g transform="translate(103.471107, 151.82129)"><g><path d="M 14.203125 0 L 4.015625 0 L 4.015625 -40.078125 L 14.203125 -40.078125 Z M 14.203125 0 "/></g></g></g><g fill="#696969" fill-opacity="1"><g transform="translate(135.486049, 151.82129)"><g><path d="M 26.0625 0 L 15.515625 0 L -0.0625 -40.078125 L 10.828125 -40.078125 L 21.078125 -10.59375 L 31.328125 -40.078125 L 41.796875 -40.078125 Z M 26.0625 0 "/></g></g></g><g fill="#696969" fill-opacity="1"><g transform="translate(191.038733, 151.82129)"><g><path d="M 14.203125 0 L 4.015625 0 L 4.015625 -40.078125 L 14.203125 -40.078125 Z M 14.203125 0 "/></g></g></g><g fill="#696969" fill-opacity="1"><g transform="translate(223.053669, 151.82129)"><g><path d="M 41 0 L 32.015625 0 L 13.578125 -24.6875 L 13.578125 0 L 4.015625 0 L 4.015625 -40.078125 L 13 -40.078125 L 31.5 -15.34375 L 31.5 -40.078125 L 41 -40.078125 Z M 41 0 "/></g></g></g><g fill="#696969" fill-opacity="1"><g transform="translate(281.870712, 151.82129)"><g><path d="M 30.640625 -20.390625 L 39.453125 -20.390625 L 39.453125 -4.75 C 37.273438 -3.226562 34.648438 -1.976562 31.578125 -1 C 28.503906 -0.03125 25.578125 0.453125 22.796875 0.453125 C 16.679688 0.453125 11.582031 -1.5 7.5 -5.40625 C 3.414062 -9.320312 1.375 -14.203125 1.375 -20.046875 C 1.375 -25.847656 3.472656 -30.691406 7.671875 -34.578125 C 11.867188 -38.472656 17.140625 -40.421875 23.484375 -40.421875 C 26.460938 -40.421875 29.421875 -39.882812 32.359375 -38.8125 C 35.296875 -37.75 37.796875 -36.300781 39.859375 -34.46875 L 34.125 -27.546875 C 32.675781 -28.878906 31 -29.9375 29.09375 -30.71875 C 27.1875 -31.5 25.296875 -31.890625 23.421875 -31.890625 C 20.140625 -31.890625 17.378906 -30.753906 15.140625 -28.484375 C 12.910156 -26.210938 11.796875 -23.398438 11.796875 -20.046875 C 11.796875 -16.648438 12.921875 -13.804688 15.171875 -11.515625 C 17.421875 -9.222656 20.207031 -8.078125 23.53125 -8.078125 C 25.675781 -8.078125 28.046875 -8.722656 30.640625 -10.015625 Z M 30.640625 -20.390625 "/></g></g></g><path stroke-linecap="butt" transform="matrix(0.75, 0, 0, 0.75, 61.356852, 158.827533)" fill="none" stroke-linejoin="miter" d="M 59.768992 76.000795 L 47.018991 76.000795 L 37.946074 42.256001 L 28.753365 76.000795 L 15.914823 76.000795 L -0.0539283 27.1935 L 13.190864 27.1935 L 22.742948 63.094544 L 32.086699 27.1935 L 44.227325 27.1935 L 53.779409 63.094544 L 63.190868 27.1935 L 75.87316 27.1935 Z M 129.487747 67.011211 L 108.154412 67.011211 L 104.59712 76.000795 L 91.847119 76.000795 L 112.904412 27.1935 L 125.654413 27.1935 L 146.222123 76.000795 L 132.97733 76.000795 Z M 125.862747 57.594543 L 118.899205 39.537251 L 111.779412 57.594543 Z M 204.862752 37.167459 L 190.154418 37.167459 L 190.154418 76.000795 L 177.742958 76.000795 L 177.742958 37.167459 L 163.170041 37.167459 L 163.170041 27.125791 L 204.862752 27.125791 Z M 265.170047 36.948709 L 239.378379 36.948709 L 239.378379 46.651834 L 262.664839 46.651834 L 262.664839 56.407043 L 239.378379 56.407043 L 239.378379 66.245586 L 265.935673 66.245586 L 265.935673 76.000795 L 226.96692 76.000795 L 226.96692 27.1935 L 265.170047 27.1935 Z M 320.180468 76.000795 L 312.930467 62.26121 L 303.175258 62.26121 L 303.175258 76.000795 L 290.763799 76.000795 L 290.763799 27.1935 L 312.586717 27.1935 C 319.045051 27.1935 324.039843 28.667458 327.571093 31.620583 C 331.107552 34.5685 332.878385 38.761209 332.878385 44.198709 C 332.878385 51.735168 329.930468 56.969543 324.029426 59.896627 L 334.274219 76.000795 Z M 303.175258 52.506001 L 312.586717 52.506001 C 315.279426 52.506001 317.367968 51.834126 318.852343 50.47996 C 320.336718 49.131001 321.081509 47.177876 321.081509 44.625793 C 321.081509 42.115376 320.336718 40.209126 318.852343 38.907042 C 317.367968 37.59975 315.279426 36.948709 312.586717 36.948709 L 303.175258 36.948709 Z M 303.175258 52.506001 " stroke="#ffffff" stroke-width="2.004838" stroke-opacity="1" stroke-miterlimit="4"/><g fill="#003884" fill-opacity="1"><g transform="translate(61.368571, 215.827529)"><g><path d="M 44.8125 0 L 35.25 0 L 28.453125 -25.3125 L 21.546875 0 L 11.921875 0 L -0.046875 -36.609375 L 9.890625 -36.609375 L 17.046875 -9.671875 L 24.0625 -36.609375 L 33.15625 -36.609375 L 40.328125 -9.671875 L 47.375 -36.609375 L 56.90625 -36.609375 Z M 44.8125 0 "/></g></g></g><g fill="#003884" fill-opacity="1"><g transform="translate(130.497438, 215.827529)"><g><path d="M 27.984375 -6.75 L 11.96875 -6.75 L 9.3125 0 L -0.265625 0 L 15.53125 -36.609375 L 25.109375 -36.609375 L 40.53125 0 L 30.59375 0 Z M 25.265625 -13.8125 L 20.03125 -27.34375 L 14.703125 -13.8125 Z M 25.265625 -13.8125 "/></g></g></g><g fill="#003884" fill-opacity="1"><g transform="translate(183.36439, 215.827529)"><g><path d="M 31.640625 -29.125 L 20.609375 -29.125 L 20.609375 0 L 11.296875 0 L 11.296875 -29.125 L 0.359375 -29.125 L 0.359375 -36.65625 L 31.640625 -36.65625 Z M 31.640625 -29.125 "/></g></g></g><g fill="#003884" fill-opacity="1"><g transform="translate(227.917369, 215.827529)"><g><path d="M 32.3125 -29.28125 L 12.96875 -29.28125 L 12.96875 -22.015625 L 30.4375 -22.015625 L 30.4375 -14.703125 L 12.96875 -14.703125 L 12.96875 -7.328125 L 32.890625 -7.328125 L 32.890625 0 L 3.65625 0 L 3.65625 -36.609375 L 32.3125 -36.609375 Z M 32.3125 -29.28125 "/></g></g></g><g fill="#003884" fill-opacity="1"><g transform="translate(275.764552, 215.827529)"><g><path d="M 25.734375 0 L 20.296875 -10.296875 L 12.96875 -10.296875 L 12.96875 0 L 3.65625 0 L 3.65625 -36.609375 L 20.03125 -36.609375 C 24.875 -36.609375 28.617188 -35.5 31.265625 -33.28125 C 33.921875 -31.070312 35.25 -27.925781 35.25 -23.84375 C 35.25 -18.195312 33.035156 -14.273438 28.609375 -12.078125 L 36.296875 0 Z M 12.96875 -17.625 L 20.03125 -17.625 C 22.050781 -17.625 23.617188 -18.128906 24.734375 -19.140625 C 25.847656 -20.148438 26.40625 -21.613281 26.40625 -23.53125 C 26.40625 -25.414062 25.847656 -26.84375 24.734375 -27.8125 C 23.617188 -28.789062 22.050781 -29.28125 20.03125 -29.28125 L 12.96875 -29.28125 Z M 12.96875 -17.625 "/></g></g></g><path stroke-linecap="butt" transform="matrix(0.75, 0, 0, 0.75, 59.50225, 223.381217)" fill="none" stroke-linejoin="miter" d="M 102.575131 28.918797 L 89.455339 28.918797 L 89.455339 64.002132 L 82.486588 64.002132 L 82.486588 28.918797 L 69.439713 28.918797 L 69.439713 22.658379 L 102.575131 22.658379 Z M 152.293885 28.918797 L 129.731383 28.918797 L 129.731383 40.080256 L 149.929301 40.080256 L 149.929301 46.335464 L 129.731383 46.335464 L 129.731383 57.741715 L 153.002218 57.741715 L 153.002218 64.002132 L 122.767841 64.002132 L 122.767841 22.658379 L 152.293885 22.658379 Z M 194.049096 22.486504 C 196.960554 22.486504 199.799096 23.049004 202.56993 24.174005 C 205.345972 25.288588 207.741805 26.851088 209.752222 28.861505 L 205.668888 33.934422 C 204.179305 32.319838 202.408471 31.043797 200.361596 30.101088 C 198.314721 29.15838 196.247013 28.68963 194.163679 28.68963 C 190.028262 28.68963 186.53347 30.09588 183.679303 32.913588 C 180.825137 35.72088 179.398053 39.153172 179.398053 43.210464 C 179.398053 47.304214 180.825137 50.75734 183.679303 53.575048 C 186.53347 56.392757 190.028262 57.799007 194.163679 57.799007 C 198.450138 57.799007 202.283471 56.16359 205.668888 52.897965 L 209.809514 57.496923 C 207.684513 59.590674 205.205347 61.252132 202.366805 62.470882 C 199.533471 63.684424 196.674096 64.288591 193.804304 64.288591 C 187.736595 64.288591 182.637637 62.272965 178.50222 58.246923 C 174.372011 54.210465 172.304303 49.215673 172.304303 43.267756 C 172.304303 37.403172 174.398053 32.476088 178.590761 28.486505 C 182.788678 24.486505 187.944929 22.486504 194.049096 22.486504 Z M 266.970976 64.002132 L 260.007433 64.002132 L 260.007433 46.871923 L 238.090765 46.871923 L 238.090765 64.002132 L 231.127223 64.002132 L 231.127223 22.658379 L 238.090765 22.658379 L 238.090765 40.611506 L 260.007433 40.611506 L 260.007433 22.658379 L 266.970976 22.658379 Z M 266.970976 64.002132 " stroke="#ffffff" stroke-width="0.812173" stroke-opacity="1" stroke-miterlimit="4"/><g fill="#000000" fill-opacity="1"><g transform="translate(111.181934, 271.381213)"><g><path d="M 25.25 -26.3125 L 15.421875 -26.3125 L 15.421875 0 L 10.1875 0 L 10.1875 -26.3125 L 0.40625 -26.3125 L 0.40625 -31.015625 L 25.25 -31.015625 Z M 25.25 -26.3125 "/></g></g></g><g fill="#000000" fill-opacity="1"><g transform="translate(147.499462, 271.381213)"><g><path d="M 26.21875 -26.3125 L 9.296875 -26.3125 L 9.296875 -17.9375 L 24.453125 -17.9375 L 24.453125 -13.25 L 9.296875 -13.25 L 9.296875 -4.703125 L 26.75 -4.703125 L 26.75 0 L 4.078125 0 L 4.078125 -31.015625 L 26.21875 -31.015625 Z M 26.21875 -26.3125 "/></g></g></g><g fill="#000000" fill-opacity="1"><g transform="translate(187.226952, 271.381213)"><g><path d="M 17.8125 -31.140625 C 19.988281 -31.140625 22.117188 -30.71875 24.203125 -29.875 C 26.285156 -29.03125 28.082031 -27.859375 29.59375 -26.359375 L 26.53125 -22.546875 C 25.40625 -23.753906 24.078125 -24.710938 22.546875 -25.421875 C 21.015625 -26.128906 19.460938 -26.484375 17.890625 -26.484375 C 14.796875 -26.484375 12.175781 -25.425781 10.03125 -23.3125 C 7.894531 -21.207031 6.828125 -18.632812 6.828125 -15.59375 C 6.828125 -12.519531 7.894531 -9.925781 10.03125 -7.8125 C 12.175781 -5.707031 14.796875 -4.65625 17.890625 -4.65625 C 21.109375 -4.65625 23.988281 -5.878906 26.53125 -8.328125 L 29.640625 -4.875 C 28.046875 -3.3125 26.179688 -2.070312 24.046875 -1.15625 C 21.921875 -0.238281 19.78125 0.21875 17.625 0.21875 C 13.082031 0.21875 9.257812 -1.289062 6.15625 -4.3125 C 3.050781 -7.34375 1.5 -11.085938 1.5 -15.546875 C 1.5 -19.953125 3.070312 -23.648438 6.21875 -26.640625 C 9.363281 -29.640625 13.226562 -31.140625 17.8125 -31.140625 Z M 17.8125 -31.140625 "/></g></g></g><g fill="#000000" fill-opacity="1"><g transform="translate(228.770142, 271.381213)"><g><path d="M 30.96875 0 L 25.734375 0 L 25.734375 -12.84375 L 9.296875 -12.84375 L 9.296875 0 L 4.078125 0 L 4.078125 -31.015625 L 9.296875 -31.015625 L 9.296875 -17.546875 L 25.734375 -17.546875 L 25.734375 -31.015625 L 30.96875 -31.015625 Z M 30.96875 0 "/></g></g></g></svg>